<svg width="44" height="44" viewBox="0 0 44 44" fill="none" xmlns="http://www.w3.org/2000/svg">
<path d="M20.9973 7.33059L6.91459 14.2798C4.29281 15.5736 2.50325 17.2639 1.54592 19.3509C0.576262 21.4129 0.670539 23.6175 1.82875 25.9646C2.3216 26.9634 3.01454 27.8013 3.90756 28.4784C4.77561 29.1679 5.76332 29.5964 6.8707 29.7641C5.95556 30.9299 5.46392 32.0729 5.39578 33.1933C5.30267 34.3259 5.60112 35.5914 6.29111 36.9897C7.10432 38.6377 8.21847 39.8888 9.63356 40.743C11.0363 41.5722 12.5782 41.9912 14.2592 42C15.928 41.9839 17.5863 41.5692 19.2343 40.756L33.9163 33.511L20.9973 7.33059ZM14.3592 22.9484C13.5852 23.3304 12.9494 23.4578 12.452 23.3306C11.9173 23.1909 11.4713 22.7589 11.1139 22.0348C10.7813 21.3606 10.7283 20.7813 10.955 20.2969C11.1567 19.8247 11.6445 19.3977 12.4186 19.0157L15.34 17.5741L17.2806 21.5068L14.3592 22.9484ZM18.9364 33.4511C18.0375 33.8947 17.302 34.0402 16.73 33.8878C16.158 33.7354 15.681 33.2721 15.2991 32.4981C14.9171 31.724 14.8396 31.0636 15.0666 30.5169C15.2813 29.9453 15.8381 29.4376 16.737 28.9941L20.1454 27.3122L22.3447 31.7692L18.9364 33.4511Z" fill="white"/>
<path d="M39.2865 18.7925C38.7321 17.6688 38.021 16.7312 37.1533 15.9795C36.2606 15.2401 35.273 14.7804 34.1906 14.6004C33.8174 14.5362 33.2574 14.471 32.5106 14.4048C31.5151 14.275 30.837 14.1594 30.4764 14.0579C30.1035 13.9314 29.8308 13.6934 29.6583 13.3438C29.2763 12.5698 29.9718 11.7453 31.7446 10.8705C33.9419 9.78625 36.4722 9.31388 39.3355 9.45343L35.6576 2.00006C34.1757 2.01719 32.7053 2.21494 31.2464 2.59331C29.7874 2.97168 28.209 3.57979 26.5111 4.41764C23.2401 6.03174 20.9823 7.96869 19.7377 10.2285C18.4807 12.4633 18.419 14.7293 19.5526 17.0265C20.1686 18.275 20.9235 19.1755 21.8172 19.7281C22.6985 20.2557 23.9854 20.6298 25.6777 20.8504C27.3078 21.0707 28.502 21.3197 29.2601 21.5977C30.0059 21.8506 30.5513 22.3267 30.8963 23.0258L31.192 23.6251L39.6192 19.4666L39.2865 18.7925ZM40.3591 31.5369C41.5826 30.9331 42.4155 30.0098 42.8578 28.7669C43.2752 27.5363 43.1882 26.3217 42.5968 25.1232C41.993 23.8997 41.082 23.0917 39.8638 22.6993C38.6332 22.2819 37.3936 22.3813 36.1452 22.9973C34.9217 23.6011 34.1012 24.5183 33.6838 25.7488C33.2291 26.9668 33.3037 28.1875 33.9074 29.411C34.4989 30.6095 35.4223 31.4113 36.6779 31.8164C37.9335 32.2215 39.1605 32.1283 40.3591 31.5369Z" fill="white"/>
</svg>
